<svg width="307" height="232" viewBox="0 0 307 232" fill="none" xmlns="http://www.w3.org/2000/svg">
<g id="flower-3">
<path id="Vector" d="M200.4 107.348C197.96 106.018 197.56 100.098 200.02 96.0181C201.9 92.9081 208.03 95.3181 209.88 98.0481C212.82 102.378 215.28 104.348 214.65 105.478C214.11 106.448 212.07 105.408 207.92 105.868C203.14 106.398 201.99 108.218 200.39 107.338L200.4 107.348Z" fill="#A53860" stroke="#A53860" stroke-miterlimit="10"/>
<path id="Vector_2" d="M214.77 92.1881C218.2 92.3981 221.4 93.4081 227.79 95.4381C234.26 97.4881 237.55 98.5581 239.86 100.648C243.32 103.768 244.71 107.748 245.34 110.338C245.95 113.278 247.71 123.578 241.5 132.018C237.75 137.118 230.33 142.558 226 140.418C223.53 139.198 222.74 135.838 221.53 130.688C220.35 125.648 220.77 123.268 220.22 119.238C219.74 115.698 218.5 110.768 215.06 104.998C214.31 103.768 213.16 102.028 211.56 100.068C209.75 97.8581 208.81 96.7281 207.3 95.8981C204.15 94.1581 201.13 94.9981 201.08 94.6081C201.01 94.0481 207.16 91.7281 214.77 92.1981V92.1881Z" fill="#F9C5D5" stroke="#A53860" stroke-miterlimit="10"/>
<path id="Vector_3" d="M237.32 98.698C241.25 99.408 245.18 100.108 249.1 100.818C250.56 101.438 252.96 102.748 254.45 105.328C256.23 108.398 255.67 111.478 254.76 116.158C254.14 119.308 252.38 128.308 246.17 133.658C244.29 135.278 242.29 136.318 241.14 136.848C239 137.838 236.03 138.788 235.74 138.248C235.5 137.798 237.31 136.698 239.36 134.578C239.73 134.198 242.44 131.348 244.21 127.428C246.42 122.528 246.22 118.038 246.09 114.868C245.97 112.148 245.88 110.008 244.86 107.428C242.94 102.568 239.2 99.858 237.32 98.688V98.698Z" fill="#F9C5D5" stroke="#A53860" stroke-miterlimit="10"/>
<path id="Vector_4" d="M238.04 98.6081C240.18 97.4881 243.52 96.0081 247.8 95.3281C254.56 94.2581 257.17 96.1981 263.6 96.5781C275.79 97.3081 276.47 90.9281 288.6 91.5581C296.28 91.9581 300.79 94.7681 303.93 91.8581C305.77 90.1481 306.3 87.2681 305.86 85.0681C305.46 83.0681 304.15 81.1381 295.45 75.9481C289.42 72.3581 286.41 70.5581 284.53 70.0881C278.66 68.6381 277.08 70.9881 265.55 71.9181C257.86 72.5381 257.5 71.5781 250.94 72.4081C242.93 73.4181 237.07 75.6581 235.94 76.0981C225.54 80.1481 218.27 86.9081 213.78 92.1181C215.16 92.2781 217.33 92.5781 219.96 93.1481C222.57 93.7181 224.37 94.2781 230.37 96.1781C233.87 97.2881 236.6 98.1581 238.03 98.6181L238.04 98.6081Z" fill="#F9C5D5" stroke="#A53860" stroke-miterlimit="10"/>
<path id="Vector_5" d="M286.63 91.488C283.27 89.938 278.6 88.068 272.85 86.628C268.2 85.458 260.05 83.478 249.98 84.358C237.87 85.418 228.56 90.128 222.97 93.658" stroke="#A53860" stroke-miterlimit="10"/>
<path id="Vector_6" d="M244.98 77.5681C241.02 78.4281 236.26 79.8081 231.12 82.0981C224.06 85.2381 218.62 89.028 214.77 92.198" stroke="#A53860" stroke-miterlimit="10"/>
<path id="Vector_7" d="M245.119 75.6977C246.064 75.0533 247.564 75.3789 248.435 76.656C249.306 77.933 249.061 79.4487 248.116 80.0933C247.171 80.7379 245.67 80.4121 244.799 79.1351C243.929 77.858 244.173 76.3423 245.119 75.6977Z" fill="#A53860" stroke="#A53860"/>
<path id="Vector_8" d="M210.04 90.3281C209.72 88.5381 209.11 86.1781 207.84 83.5981C205.61 79.0581 202.59 76.3881 201.89 75.7981C198.8 73.1481 197.88 73.7981 196.01 71.5981C193.52 68.6881 194.57 66.8581 192.69 63.3481C190.69 59.6281 188.46 59.7181 182.73 54.8681C181.23 53.5981 177.69 50.5681 174.74 46.5181C172.28 43.1581 166.57 35.3381 168.95 30.4281C172 24.1181 186.66 26.0781 189.9 26.5181C199.03 27.7381 213.54 32.4781 214.9 41.0081C215.33 43.7181 214.01 44.1581 212.72 50.2681C211.22 57.3581 211.96 61.7081 212.08 68.1281C212.18 73.3281 211.9 80.8781 210.04 90.3181V90.3281Z" fill="#F9C5D5" stroke="#A53860" stroke-miterlimit="10"/>
<path id="Vector_9" d="M221.27 31.6681C224.86 24.1681 223.32 23.0181 226 18.8581C229.74 13.0581 233.74 13.7581 236.35 7.92807C238.26 3.64807 237.08 1.11807 238.42 0.58807C241.39 -0.60193 250.94 10.4481 254.25 23.7981C254.97 26.6881 258.86 42.3781 250.54 52.2881C248.26 54.9981 247.98 53.8181 240.24 59.8281C232.02 66.2181 227.91 69.4081 224.6 74.3781C221.1 79.6381 220.42 83.4881 215.1 88.1381C213.26 89.7481 211.54 90.8581 210.36 91.5481C211.33 86.1681 211.82 81.3881 212.05 77.3381C212.19 74.8281 212.23 72.5881 212.21 70.6581C212.17 64.7681 211.68 64.1181 211.99 59.3081C212.28 54.8181 212.83 47.4381 216.65 39.6281C218.58 35.6781 219.09 36.2581 221.27 31.6781V31.6681Z" fill="#F9C5D5" stroke="#A53860" stroke-miterlimit="10"/>
<path id="Vector_10" d="M211.63 79.778C210.89 77.848 209.71 75.198 207.89 72.288C205.99 69.258 203.2 64.7981 197.89 61.3081C193.66 58.5281 189.35 57.3581 185.97 56.8781" stroke="#A53860" stroke-miterlimit="10"/>
<path id="Vector_11" d="M211.46 78.5281C211.65 73.2981 211.17 64.3281 206.25 55.1481C203.23 49.5081 199.61 45.8081 197.55 43.7281C193.99 40.1381 190.37 36.4781 184.43 34.1881C178.6 31.9381 173.1 31.9881 169.14 32.5181" stroke="#A53860" stroke-miterlimit="10"/>
<path id="Vector_12" d="M231.47 58.9081C229.42 63.6081 226.76 68.8681 223.3 74.4081C219.1 81.1381 214.72 86.6681 210.75 91.0881" stroke="#A53860" stroke-miterlimit="10"/>
<path id="Vector_13" d="M219.07 70.5281C218.93 73.0481 218.46 76.4381 217.1 80.2181C215.19 85.5381 212.35 89.2981 210.36 91.5281" stroke="#A53860" stroke-miterlimit="10"/>
<path id="Vector_14" d="M230.537 55.3792C231.482 54.7347 232.982 55.0604 233.853 56.3374C234.724 57.6144 234.479 59.1302 233.534 59.7748C232.589 60.4194 231.088 60.0935 230.217 58.8165C229.347 57.5394 229.591 56.0237 230.537 55.3792Z" fill="#A53860" stroke="#A53860"/>
<path id="Vector_15" d="M217.907 67.8004C218.852 67.156 220.353 67.4817 221.224 68.7587C222.094 70.0357 221.85 71.5514 220.904 72.1961C219.959 72.8406 218.459 72.5148 217.588 71.2378C216.717 69.9607 216.962 68.445 217.907 67.8004Z" fill="#A53860" stroke="#A53860"/>
<path id="Vector_16" d="M248.05 54.7781C259.5 47.9081 276.97 43.8381 281.08 49.4381C283.08 52.1681 280.32 55.0181 283.13 60.5781C285 64.2781 287.64 65.8181 287.02 67.4781C286.51 68.8581 284.22 69.0681 280.87 69.4581C266.15 71.1681 272.81 71.2881 261.33 71.9981C255.74 72.3481 252.86 72.3781 251.12 72.4681C244.3 72.8281 234.47 75.2081 221.77 84.4181C217.61 88.2481 215.23 90.5381 214.58 91.3181C214.48 91.4381 214.26 91.7181 213.88 91.8881C213.39 92.1181 213.01 91.9981 211.81 91.9181C210.74 91.8481 210.66 91.9181 210.61 91.8281C210.29 91.2481 214.82 89.1781 218.39 84.7181C219.39 83.4681 219.19 83.4481 221.75 79.2681C223.54 76.3581 225.26 73.5581 226.72 71.5981C227.59 70.4181 229.57 68.1781 238.86 61.1881C243.41 57.7681 245.76 56.1381 248.06 54.7581L248.05 54.7781Z" fill="#F9C5D5" stroke="#A53860" stroke-miterlimit="10"/>
<path id="Vector_17" d="M248.11 66.6481C239.65 69.4581 233.91 73.0881 230.17 75.9581C227.57 77.9581 225.31 80.0681 216.11 87.6481C214.09 89.3081 212.43 90.6681 211.31 91.5781" stroke="#A53860" stroke-miterlimit="10"/>
<path id="Vector_18" d="M247.233 65.102C247.981 64.3956 249.298 64.4487 250.175 65.3764C251.051 66.3043 251.03 67.6232 250.282 68.3299C249.534 69.0366 248.216 68.9828 247.339 68.0549C246.463 67.1269 246.485 65.8087 247.233 65.102Z" fill="#A53860" stroke="#A53860"/>
<g id="Vector_19">
<mask id="path-19-inside-1_100_4202" fill="white">
<path d="M283.34 60.9981C272.38 57.8881 260.9 60.4481 251.04 65.6681L250.99 65.5881C259.91 58.6481 273.02 57.3481 283.34 60.9981Z"/>
</mask>
<path d="M283.34 60.9981C272.38 57.8881 260.9 60.4481 251.04 65.6681L250.99 65.5881C259.91 58.6481 273.02 57.3481 283.34 60.9981Z" fill="black"/>
<path d="M283.34 60.9981L283.067 61.9601L283.673 60.0553L283.34 60.9981ZM251.04 65.6681L250.192 66.198L250.685 66.9874L251.508 66.5519L251.04 65.6681ZM250.99 65.5881L250.376 64.7988L249.664 65.3528L250.142 66.118L250.99 65.5881ZM283.34 60.9981L283.613 60.036C272.33 56.8345 260.58 59.4859 250.572 64.7843L251.04 65.6681L251.508 66.5519C261.22 61.4102 272.43 58.9417 283.067 61.9601L283.34 60.9981ZM251.04 65.6681L251.888 65.1382L251.838 65.0582L250.99 65.5881L250.142 66.118L250.192 66.198L251.04 65.6681ZM250.99 65.5881L251.604 66.3773C260.218 59.6754 272.961 58.3879 283.007 61.9408L283.34 60.9981L283.673 60.0553C273.079 56.3082 259.602 57.6207 250.376 64.7988L250.99 65.5881Z" fill="#A53860" mask="url(#path-19-inside-1_100_4202)"/>
</g>
<path id="Vector_20" d="M248.652 60.9769C247.289 62.2855 245.91 63.5926 244.503 64.8676C245.861 63.5324 247.173 62.1856 248.652 60.9769Z" fill="black" stroke="#A53860"/>
<path id="Vector_21" d="M238.71 0.788086C240.44 6.35809 242.13 14.0581 242.12 23.2681C242.1 39.1881 236.98 51.4381 233.6 58.0481" stroke="#A53860" stroke-miterlimit="10"/>
<path id="Vector_22" d="M200.4 107.348C195.39 116.258 186.62 128.718 171.83 136.908C156.69 145.298 144.6 144.028 119.84 147.898C96.77 151.508 76.22 157.468 66.2 161.338C49.68 167.718 22.17 183.728 -2 230.978" stroke="#A53860" stroke-width="2" stroke-miterlimit="10"/>
<path id="Vector_23" d="M94.68 122.588C103.36 110.608 113.75 104.308 121.18 99.808C129.31 94.878 136.73 91.818 142.22 89.908C137.9 92.928 131.18 98.188 124.68 106.198C113.9 119.468 113.25 128.518 103.02 140.098C99.04 144.608 92.36 150.898 81.5 156.368C82.57 148.158 85.56 135.168 94.68 122.588Z" fill="white" stroke="#A53860" stroke-miterlimit="10"/>
<path id="Vector_24" d="M152.91 132.998C164.3 123.558 169.91 112.788 173.93 105.088C178.32 96.6581 180.89 89.0581 182.44 83.4481C179.7 87.9581 174.89 94.9981 167.32 102.008C154.78 113.628 145.79 114.858 134.89 125.818C130.65 130.088 124.8 137.148 120.05 148.348C128.18 146.748 140.94 142.928 152.91 133.008V132.998Z" fill="white" stroke="#A53860" stroke-miterlimit="10"/>
<path id="Vector_25" d="M61.1099 200.278C75.8499 201.508 87.3999 197.748 95.6599 195.058C104.7 192.118 111.86 188.488 116.89 185.568C111.78 186.868 103.41 188.528 93.0999 188.238C76.0099 187.758 68.7299 182.338 53.2799 182.538C47.2599 182.618 38.1399 183.568 26.9099 188.228C33.8299 192.778 45.6199 198.978 61.1099 200.278Z" fill="white" stroke="#A53860" stroke-miterlimit="10"/>
</g>
</svg>
